<svg xmlns="http://www.w3.org/2000/svg" viewBox="0 0 64 64" role="img" aria-labelledby="title desc">
  <title id="title">Michael Dahlke favicon</title>
  <desc id="desc">Rounded square badge with MD initials in green and gold.</desc>
  <defs>
    <linearGradient id="bg" x1="8" y1="6" x2="56" y2="58" gradientUnits="userSpaceOnUse">
      <stop offset="0" stop-color="#18211c" />
      <stop offset="1" stop-color="#2e2230" />
    </linearGradient>
    <linearGradient id="accent" x1="14" y1="14" x2="50" y2="50" gradientUnits="userSpaceOnUse">
      <stop offset="0" stop-color="#2b9f5e" />
      <stop offset="1" stop-color="#f1c83c" />
    </linearGradient>
    <filter id="shadow" x="-20%" y="-20%" width="140%" height="140%">
      <feDropShadow dx="0" dy="2" stdDeviation="2" flood-color="#533d4a" flood-opacity=".45" />
    </filter>
  </defs>

  <rect width="64" height="64" rx="16" fill="url(#bg)" />
  <path d="M12 48V16h8.2l11.8 18.2L43.8 16H52v32h-7.2V27.8L32 47 19.2 27.8V48Z" fill="#f7f3e8" filter="url(#shadow)" />
  <path d="M48 48V16h-7.4v32Z" fill="url(#accent)" />
  <path d="M42.5 16H52c4.4 0 8 3.6 8 8v16c0 4.4-3.6 8-8 8h-9.5v-6.8H50c1.7 0 3-1.3 3-3V25.8c0-1.7-1.3-3-3-3h-7.5Z" fill="url(#accent)" transform="translate(-4 0)" />
  <rect x="3" y="3" width="58" height="58" rx="13" fill="none" stroke="#ffffff" stroke-opacity=".12" />
</svg>
